<mxfile host="Electron" modified="2024-08-30T18:37:55.835Z" agent="Mozilla/5.0 (Windows NT 10.0; Win64; x64) AppleWebKit/537.36 (KHTML, like Gecko) draw.io/22.1.2 Chrome/114.0.5735.289 Electron/25.9.4 Safari/537.36" etag="F1etAx8mQeXxGP7bvrIl" version="22.1.2" type="device">
  <diagram name="Page-1" id="YkvZCnHD_VTHWkr8sgtr">
    <mxGraphModel dx="2390" dy="1473" grid="1" gridSize="10" guides="1" tooltips="1" connect="1" arrows="1" fold="1" page="1" pageScale="1" pageWidth="1920" pageHeight="1200" math="0" shadow="0">
      <root>
        <mxCell id="0" />
        <mxCell id="1" parent="0" />
        <mxCell id="QUj7tqfvBL1cCQFpFe97-3" value="Audio" style="shape=cube;whiteSpace=wrap;html=1;boundedLbl=1;backgroundOutline=1;darkOpacity=0.05;darkOpacity2=0.1;size=10;" vertex="1" parent="1">
          <mxGeometry x="30" y="320" width="120" height="30" as="geometry" />
        </mxCell>
        <mxCell id="QUj7tqfvBL1cCQFpFe97-5" value="Text File" style="shape=cube;whiteSpace=wrap;html=1;boundedLbl=1;backgroundOutline=1;darkOpacity=0.05;darkOpacity2=0.1;size=10;" vertex="1" parent="1">
          <mxGeometry x="30" y="300" width="120" height="30" as="geometry" />
        </mxCell>
        <mxCell id="QUj7tqfvBL1cCQFpFe97-4" value="Script" style="shape=cube;whiteSpace=wrap;html=1;boundedLbl=1;backgroundOutline=1;darkOpacity=0.05;darkOpacity2=0.1;size=10;" vertex="1" parent="1">
          <mxGeometry x="30" y="280" width="120" height="30" as="geometry" />
        </mxCell>
        <mxCell id="QUj7tqfvBL1cCQFpFe97-2" value="Image" style="shape=cube;whiteSpace=wrap;html=1;boundedLbl=1;backgroundOutline=1;darkOpacity=0.05;darkOpacity2=0.1;size=10;" vertex="1" parent="1">
          <mxGeometry x="30" y="260" width="120" height="30" as="geometry" />
        </mxCell>
        <mxCell id="QUj7tqfvBL1cCQFpFe97-1" value="Resources&amp;nbsp;" style="shape=cube;whiteSpace=wrap;html=1;boundedLbl=1;backgroundOutline=1;darkOpacity=0.05;darkOpacity2=0.1;size=10;" vertex="1" parent="1">
          <mxGeometry x="30" y="240" width="120" height="30" as="geometry" />
        </mxCell>
        <mxCell id="QUj7tqfvBL1cCQFpFe97-40" style="edgeStyle=orthogonalEdgeStyle;rounded=0;orthogonalLoop=1;jettySize=auto;html=1;entryX=0.5;entryY=0;entryDx=0;entryDy=0;" edge="1" parent="1" source="QUj7tqfvBL1cCQFpFe97-6" target="QUj7tqfvBL1cCQFpFe97-7">
          <mxGeometry relative="1" as="geometry" />
        </mxCell>
        <mxCell id="QUj7tqfvBL1cCQFpFe97-41" style="edgeStyle=orthogonalEdgeStyle;rounded=0;orthogonalLoop=1;jettySize=auto;html=1;entryX=0.5;entryY=0;entryDx=0;entryDy=0;" edge="1" parent="1" source="QUj7tqfvBL1cCQFpFe97-6" target="QUj7tqfvBL1cCQFpFe97-21">
          <mxGeometry relative="1" as="geometry" />
        </mxCell>
        <mxCell id="QUj7tqfvBL1cCQFpFe97-43" style="edgeStyle=orthogonalEdgeStyle;rounded=0;orthogonalLoop=1;jettySize=auto;html=1;entryX=0;entryY=0.5;entryDx=0;entryDy=0;" edge="1" parent="1" source="QUj7tqfvBL1cCQFpFe97-6" target="QUj7tqfvBL1cCQFpFe97-36">
          <mxGeometry relative="1" as="geometry" />
        </mxCell>
        <mxCell id="QUj7tqfvBL1cCQFpFe97-6" value="ResMgr" style="shape=cube;whiteSpace=wrap;html=1;boundedLbl=1;backgroundOutline=1;darkOpacity=0.05;darkOpacity2=0.1;size=10;" vertex="1" parent="1">
          <mxGeometry x="530" y="200" width="120" height="40" as="geometry" />
        </mxCell>
        <mxCell id="QUj7tqfvBL1cCQFpFe97-7" value="Resource Store" style="shape=datastore;whiteSpace=wrap;html=1;" vertex="1" parent="1">
          <mxGeometry x="485" y="300" width="60" height="85" as="geometry" />
        </mxCell>
        <mxCell id="QUj7tqfvBL1cCQFpFe97-21" value="Hard Disk" style="shape=datastore;whiteSpace=wrap;html=1;" vertex="1" parent="1">
          <mxGeometry x="635" y="300" width="60" height="85" as="geometry" />
        </mxCell>
        <mxCell id="QUj7tqfvBL1cCQFpFe97-26" value="VFS/Storage Reference Table" style="swimlane;childLayout=stackLayout;resizeParent=1;resizeParentMax=0;horizontal=1;startSize=20;horizontalStack=0;html=1;" vertex="1" parent="1">
          <mxGeometry y="370" width="180" height="80" as="geometry">
            <mxRectangle x="1070" y="500" width="210" height="30" as="alternateBounds" />
          </mxGeometry>
        </mxCell>
        <mxCell id="QUj7tqfvBL1cCQFpFe97-27" value="1" style="swimlane;startSize=20;horizontal=0;html=1;" vertex="1" parent="QUj7tqfvBL1cCQFpFe97-26">
          <mxGeometry y="20" width="180" height="20" as="geometry">
            <mxRectangle y="20" width="480" height="30" as="alternateBounds" />
          </mxGeometry>
        </mxCell>
        <mxCell id="QUj7tqfvBL1cCQFpFe97-28" value="2" style="swimlane;startSize=20;horizontal=0;html=1;" vertex="1" parent="QUj7tqfvBL1cCQFpFe97-26">
          <mxGeometry y="40" width="180" height="20" as="geometry">
            <mxRectangle y="50" width="480" height="30" as="alternateBounds" />
          </mxGeometry>
        </mxCell>
        <mxCell id="QUj7tqfvBL1cCQFpFe97-29" value="3" style="swimlane;startSize=20;horizontal=0;html=1;" vertex="1" parent="QUj7tqfvBL1cCQFpFe97-26">
          <mxGeometry y="60" width="180" height="20" as="geometry" />
        </mxCell>
        <mxCell id="QUj7tqfvBL1cCQFpFe97-31" value="Requirements" style="swimlane;whiteSpace=wrap;html=1;" vertex="1" parent="1">
          <mxGeometry x="200" y="170" width="200" height="200" as="geometry" />
        </mxCell>
        <mxCell id="QUj7tqfvBL1cCQFpFe97-33" value="&lt;ul&gt;&lt;li&gt;Async support&lt;/li&gt;&lt;li&gt;VFS (zlib? zip?)&lt;/li&gt;&lt;li&gt;Ability to read res directly from disk&lt;/li&gt;&lt;li&gt;Resources should condition/format themselves&lt;/li&gt;&lt;li&gt;Resource Cache - a quick way of locating resources on the disk (if needed)&lt;/li&gt;&lt;/ul&gt;" style="text;strokeColor=none;fillColor=none;html=1;whiteSpace=wrap;verticalAlign=middle;overflow=hidden;" vertex="1" parent="QUj7tqfvBL1cCQFpFe97-31">
          <mxGeometry x="-10" y="20" width="210" height="170" as="geometry" />
        </mxCell>
        <mxCell id="QUj7tqfvBL1cCQFpFe97-34" value="John Resource" style="shape=umlActor;verticalLabelPosition=bottom;verticalAlign=top;html=1;outlineConnect=0;" vertex="1" parent="1">
          <mxGeometry x="820" y="70" width="30" height="60" as="geometry" />
        </mxCell>
        <mxCell id="QUj7tqfvBL1cCQFpFe97-35" value="Hi" style="shape=callout;whiteSpace=wrap;html=1;perimeter=calloutPerimeter;position2=0.5;" vertex="1" parent="1">
          <mxGeometry x="810" width="80" height="70" as="geometry" />
        </mxCell>
        <mxCell id="QUj7tqfvBL1cCQFpFe97-38" style="edgeStyle=orthogonalEdgeStyle;rounded=0;orthogonalLoop=1;jettySize=auto;html=1;entryX=0.5;entryY=0;entryDx=0;entryDy=0;" edge="1" parent="1" source="QUj7tqfvBL1cCQFpFe97-36" target="QUj7tqfvBL1cCQFpFe97-37">
          <mxGeometry relative="1" as="geometry" />
        </mxCell>
        <mxCell id="QUj7tqfvBL1cCQFpFe97-36" value="Resource Type" style="shape=process;whiteSpace=wrap;html=1;backgroundOutline=1;" vertex="1" parent="1">
          <mxGeometry x="775" y="190" width="120" height="60" as="geometry" />
        </mxCell>
        <mxCell id="QUj7tqfvBL1cCQFpFe97-37" value="Resource Conditioner" style="shape=process;whiteSpace=wrap;html=1;backgroundOutline=1;" vertex="1" parent="1">
          <mxGeometry x="775" y="300" width="120" height="60" as="geometry" />
        </mxCell>
        <mxCell id="QUj7tqfvBL1cCQFpFe97-39" value="Calls it&#39;s own" style="text;html=1;align=center;verticalAlign=middle;resizable=0;points=[];autosize=1;strokeColor=none;fillColor=none;" vertex="1" parent="1">
          <mxGeometry x="835" y="260" width="90" height="30" as="geometry" />
        </mxCell>
        <mxCell id="QUj7tqfvBL1cCQFpFe97-42" value="Reads From" style="text;html=1;align=center;verticalAlign=middle;resizable=0;points=[];autosize=1;strokeColor=none;fillColor=none;" vertex="1" parent="1">
          <mxGeometry x="545" y="270" width="90" height="30" as="geometry" />
        </mxCell>
        <mxCell id="QUj7tqfvBL1cCQFpFe97-44" value="Creates" style="text;html=1;align=center;verticalAlign=middle;resizable=0;points=[];autosize=1;strokeColor=none;fillColor=none;" vertex="1" parent="1">
          <mxGeometry x="665" y="198" width="70" height="30" as="geometry" />
        </mxCell>
        <mxCell id="QUj7tqfvBL1cCQFpFe97-45" value="Wetware Instance" style="shape=umlActor;verticalLabelPosition=bottom;verticalAlign=top;html=1;outlineConnect=0;" vertex="1" parent="1">
          <mxGeometry x="260" y="580" width="30" height="60" as="geometry" />
        </mxCell>
        <mxCell id="QUj7tqfvBL1cCQFpFe97-90" style="edgeStyle=orthogonalEdgeStyle;rounded=0;orthogonalLoop=1;jettySize=auto;html=1;entryX=0;entryY=0.5;entryDx=0;entryDy=0;" edge="1" parent="1" source="QUj7tqfvBL1cCQFpFe97-87" target="QUj7tqfvBL1cCQFpFe97-89">
          <mxGeometry relative="1" as="geometry" />
        </mxCell>
        <mxCell id="QUj7tqfvBL1cCQFpFe97-87" value="ResMgr" style="shape=cube;whiteSpace=wrap;html=1;boundedLbl=1;backgroundOutline=1;darkOpacity=0.05;darkOpacity2=0.1;size=10;" vertex="1" parent="1">
          <mxGeometry x="425" y="595" width="120" height="30" as="geometry" />
        </mxCell>
        <mxCell id="QUj7tqfvBL1cCQFpFe97-88" style="edgeStyle=orthogonalEdgeStyle;rounded=0;orthogonalLoop=1;jettySize=auto;html=1;entryX=0;entryY=0;entryDx=0;entryDy=15;entryPerimeter=0;" edge="1" parent="1" source="QUj7tqfvBL1cCQFpFe97-45" target="QUj7tqfvBL1cCQFpFe97-87">
          <mxGeometry relative="1" as="geometry" />
        </mxCell>
        <mxCell id="QUj7tqfvBL1cCQFpFe97-93" style="edgeStyle=orthogonalEdgeStyle;rounded=0;orthogonalLoop=1;jettySize=auto;html=1;entryX=0;entryY=0.5;entryDx=0;entryDy=0;" edge="1" parent="1" source="QUj7tqfvBL1cCQFpFe97-89" target="QUj7tqfvBL1cCQFpFe97-91">
          <mxGeometry relative="1" as="geometry" />
        </mxCell>
        <mxCell id="QUj7tqfvBL1cCQFpFe97-89" value="Hard Disk" style="shape=datastore;whiteSpace=wrap;html=1;" vertex="1" parent="1">
          <mxGeometry x="630" y="567.5" width="60" height="85" as="geometry" />
        </mxCell>
        <mxCell id="QUj7tqfvBL1cCQFpFe97-91" value="Resource Pool" style="shape=datastore;whiteSpace=wrap;html=1;" vertex="1" parent="1">
          <mxGeometry x="775" y="567.5" width="60" height="85" as="geometry" />
        </mxCell>
        <mxCell id="QUj7tqfvBL1cCQFpFe97-95" style="edgeStyle=orthogonalEdgeStyle;rounded=0;orthogonalLoop=1;jettySize=auto;html=1;" edge="1" parent="1" source="QUj7tqfvBL1cCQFpFe97-92">
          <mxGeometry relative="1" as="geometry">
            <mxPoint x="275" y="670" as="targetPoint" />
          </mxGeometry>
        </mxCell>
        <mxCell id="QUj7tqfvBL1cCQFpFe97-92" value="Target Resource" style="shape=cube;whiteSpace=wrap;html=1;boundedLbl=1;backgroundOutline=1;darkOpacity=0.05;darkOpacity2=0.1;size=10;" vertex="1" parent="1">
          <mxGeometry x="750" y="720" width="115" height="30" as="geometry" />
        </mxCell>
        <mxCell id="QUj7tqfvBL1cCQFpFe97-94" style="edgeStyle=orthogonalEdgeStyle;rounded=0;orthogonalLoop=1;jettySize=auto;html=1;entryX=0;entryY=0;entryDx=55;entryDy=0;entryPerimeter=0;" edge="1" parent="1" source="QUj7tqfvBL1cCQFpFe97-91" target="QUj7tqfvBL1cCQFpFe97-92">
          <mxGeometry relative="1" as="geometry" />
        </mxCell>
      </root>
    </mxGraphModel>
  </diagram>
</mxfile>
